<mxfile host="65bd71144e">
    <diagram id="bVoswQC8T6PlKmy4Bn8u" name="Page-1">
        <mxGraphModel dx="2480" dy="1153" grid="1" gridSize="10" guides="1" tooltips="1" connect="1" arrows="1" fold="1" page="1" pageScale="1" pageWidth="827" pageHeight="1169" math="0" shadow="0">
            <root>
                <mxCell id="0"/>
                <mxCell id="1" parent="0"/>
                <mxCell id="542" style="edgeStyle=none;html=1;entryX=0.5;entryY=0;entryDx=0;entryDy=0;" edge="1" parent="1" source="362" target="541">
                    <mxGeometry relative="1" as="geometry"/>
                </mxCell>
                <mxCell id="362" value="Start" style="ellipse;whiteSpace=wrap;html=1;" parent="1" vertex="1">
                    <mxGeometry x="349.01" y="820" width="120" height="60" as="geometry"/>
                </mxCell>
                <mxCell id="365" value="Stop" style="ellipse;whiteSpace=wrap;html=1;" parent="1" vertex="1">
                    <mxGeometry x="349.01" y="1000" width="120" height="60" as="geometry"/>
                </mxCell>
                <mxCell id="366" value="accelerate()" style="text;html=1;align=center;verticalAlign=middle;resizable=0;points=[];autosize=1;strokeColor=none;fillColor=none;" parent="1" vertex="1">
                    <mxGeometry x="369.51" y="790" width="80" height="20" as="geometry"/>
                </mxCell>
                <mxCell id="549" style="edgeStyle=none;html=1;entryX=0.5;entryY=0;entryDx=0;entryDy=0;" edge="1" parent="1" source="541" target="548">
                    <mxGeometry relative="1" as="geometry"/>
                </mxCell>
                <mxCell id="541" value="this.cadence = this.cadence + appliedPower" style="rounded=1;whiteSpace=wrap;html=1;" vertex="1" parent="1">
                    <mxGeometry x="288.76" y="900" width="239.5" height="30" as="geometry"/>
                </mxCell>
                <mxCell id="546" value="&lt;font style=&quot;font-size: 22px&quot;&gt;&lt;b&gt;Bike.ts&lt;/b&gt;&lt;/font&gt;" style="text;html=1;align=center;verticalAlign=middle;resizable=0;points=[];autosize=1;strokeColor=none;fillColor=none;" vertex="1" parent="1">
                    <mxGeometry x="359.51" y="725" width="90" height="20" as="geometry"/>
                </mxCell>
                <mxCell id="550" style="edgeStyle=none;html=1;entryX=0.5;entryY=0;entryDx=0;entryDy=0;" edge="1" parent="1" source="548" target="365">
                    <mxGeometry relative="1" as="geometry"/>
                </mxCell>
                <mxCell id="548" value="super.setSpeed(this,cadence * 2)" style="rounded=1;whiteSpace=wrap;html=1;" vertex="1" parent="1">
                    <mxGeometry x="288.76" y="950" width="239.5" height="30" as="geometry"/>
                </mxCell>
                <mxCell id="561" style="edgeStyle=none;html=1;entryX=0.5;entryY=0;entryDx=0;entryDy=0;" edge="1" parent="1" source="552" target="560">
                    <mxGeometry relative="1" as="geometry"/>
                </mxCell>
                <mxCell id="552" value="Start" style="ellipse;whiteSpace=wrap;html=1;" vertex="1" parent="1">
                    <mxGeometry x="604.76" y="820" width="120" height="60" as="geometry"/>
                </mxCell>
                <mxCell id="553" value="Stop" style="ellipse;whiteSpace=wrap;html=1;" vertex="1" parent="1">
                    <mxGeometry x="604.76" y="1000" width="120" height="60" as="geometry"/>
                </mxCell>
                <mxCell id="558" value="ringBell()" style="text;html=1;align=center;verticalAlign=middle;resizable=0;points=[];autosize=1;strokeColor=none;fillColor=none;" vertex="1" parent="1">
                    <mxGeometry x="634.76" y="795" width="60" height="20" as="geometry"/>
                </mxCell>
                <mxCell id="562" style="edgeStyle=none;html=1;entryX=0.5;entryY=0;entryDx=0;entryDy=0;" edge="1" parent="1" source="560" target="553">
                    <mxGeometry relative="1" as="geometry"/>
                </mxCell>
                <mxCell id="560" value="console.log('Ding ding!')" style="shape=parallelogram;perimeter=parallelogramPerimeter;whiteSpace=wrap;html=1;fixedSize=1;" vertex="1" parent="1">
                    <mxGeometry x="584.88" y="920" width="159.75" height="50" as="geometry"/>
                </mxCell>
                <mxCell id="563" style="edgeStyle=none;html=1;entryX=0.5;entryY=0;entryDx=0;entryDy=0;" edge="1" parent="1" source="564" target="568">
                    <mxGeometry relative="1" as="geometry"/>
                </mxCell>
                <mxCell id="564" value="Start" style="ellipse;whiteSpace=wrap;html=1;" vertex="1" parent="1">
                    <mxGeometry x="50.13000000000001" y="815" width="120" height="60" as="geometry"/>
                </mxCell>
                <mxCell id="565" value="Stop" style="ellipse;whiteSpace=wrap;html=1;" vertex="1" parent="1">
                    <mxGeometry x="50.13000000000002" y="1000" width="120" height="60" as="geometry"/>
                </mxCell>
                <mxCell id="566" value="status()" style="text;html=1;align=center;verticalAlign=middle;resizable=0;points=[];autosize=1;strokeColor=none;fillColor=none;" vertex="1" parent="1">
                    <mxGeometry x="80.13" y="790" width="60" height="20" as="geometry"/>
                </mxCell>
                <mxCell id="567" style="edgeStyle=none;html=1;entryX=0.5;entryY=0;entryDx=0;entryDy=0;" edge="1" parent="1" source="568" target="565">
                    <mxGeometry relative="1" as="geometry"/>
                </mxCell>
                <mxCell id="568" value="console.log('&lt;br&gt;---&amp;gt; Speed: $(super.getSpeed()})&lt;br&gt;---&amp;gt; MaxSpeed: $(super.getMaxSpeed()})&lt;br&gt;---&amp;gt; Color: $(super.getColor()})&lt;br&gt;---&amp;gt; Cadence: $(this.cadence})" style="shape=parallelogram;perimeter=parallelogramPerimeter;whiteSpace=wrap;html=1;fixedSize=1;" vertex="1" parent="1">
                    <mxGeometry x="-49.86999999999999" y="890" width="320" height="90" as="geometry"/>
                </mxCell>
                <mxCell id="570" value="&lt;font style=&quot;font-size: 22px&quot;&gt;&lt;b&gt;Truck.ts&lt;/b&gt;&lt;/font&gt;" style="text;html=1;align=center;verticalAlign=middle;resizable=0;points=[];autosize=1;strokeColor=none;fillColor=none;" vertex="1" parent="1">
                    <mxGeometry x="359.51" y="250" width="100" height="20" as="geometry"/>
                </mxCell>
                <mxCell id="613" style="edgeStyle=none;html=1;entryX=0.5;entryY=0;entryDx=0;entryDy=0;" edge="1" parent="1" source="614" target="618">
                    <mxGeometry relative="1" as="geometry"/>
                </mxCell>
                <mxCell id="614" value="Start" style="ellipse;whiteSpace=wrap;html=1;" vertex="1" parent="1">
                    <mxGeometry x="515.5" y="320" width="120" height="60" as="geometry"/>
                </mxCell>
                <mxCell id="615" value="Stop" style="ellipse;whiteSpace=wrap;html=1;" vertex="1" parent="1">
                    <mxGeometry x="516" y="620" width="120" height="60" as="geometry"/>
                </mxCell>
                <mxCell id="616" value="provideAir()" style="text;html=1;align=center;verticalAlign=middle;resizable=0;points=[];autosize=1;strokeColor=none;fillColor=none;" vertex="1" parent="1">
                    <mxGeometry x="536" y="290" width="80" height="20" as="geometry"/>
                </mxCell>
                <mxCell id="634" style="edgeStyle=none;html=1;entryX=0.5;entryY=0;entryDx=0;entryDy=0;fontSize=12;" edge="1" parent="1" source="618" target="633">
                    <mxGeometry relative="1" as="geometry"/>
                </mxCell>
                <mxCell id="618" value="super.setSpeed(super.getSpeed() - airPressure / 2)" style="rounded=1;whiteSpace=wrap;html=1;" vertex="1" parent="1">
                    <mxGeometry x="425.25" y="400" width="299.51" height="20" as="geometry"/>
                </mxCell>
                <mxCell id="627" style="edgeStyle=none;html=1;entryX=0.5;entryY=0;entryDx=0;entryDy=0;" edge="1" parent="1" source="628" target="632">
                    <mxGeometry relative="1" as="geometry"/>
                </mxCell>
                <mxCell id="628" value="Start" style="ellipse;whiteSpace=wrap;html=1;" vertex="1" parent="1">
                    <mxGeometry x="160" y="315" width="120" height="60" as="geometry"/>
                </mxCell>
                <mxCell id="629" value="Stop" style="ellipse;whiteSpace=wrap;html=1;" vertex="1" parent="1">
                    <mxGeometry x="160" y="500" width="120" height="60" as="geometry"/>
                </mxCell>
                <mxCell id="630" value="status()" style="text;html=1;align=center;verticalAlign=middle;resizable=0;points=[];autosize=1;strokeColor=none;fillColor=none;" vertex="1" parent="1">
                    <mxGeometry x="190" y="290" width="60" height="20" as="geometry"/>
                </mxCell>
                <mxCell id="631" style="edgeStyle=none;html=1;entryX=0.5;entryY=0;entryDx=0;entryDy=0;" edge="1" parent="1" source="632" target="629">
                    <mxGeometry relative="1" as="geometry"/>
                </mxCell>
                <mxCell id="632" value="console.log('&lt;br&gt;---&amp;gt; Speed: $(super.getSpeed()})&lt;br&gt;---&amp;gt; MaxSpeed: $(super.getMaxSpeed()})&lt;br&gt;---&amp;gt; Color: $(super.getColor()})&lt;br&gt;---&amp;gt; License Plate: $(this.licensePlate})" style="shape=parallelogram;perimeter=parallelogramPerimeter;whiteSpace=wrap;html=1;fixedSize=1;" vertex="1" parent="1">
                    <mxGeometry x="60" y="390" width="320" height="90" as="geometry"/>
                </mxCell>
                <mxCell id="639" style="edgeStyle=none;html=1;entryX=0.5;entryY=0;entryDx=0;entryDy=0;fontSize=12;" edge="1" parent="1" source="633" target="638">
                    <mxGeometry relative="1" as="geometry"/>
                </mxCell>
                <mxCell id="641" style="edgeStyle=none;html=1;entryX=1;entryY=0.5;entryDx=0;entryDy=0;fontSize=12;rounded=0;" edge="1" parent="1" source="633" target="615">
                    <mxGeometry relative="1" as="geometry">
                        <Array as="points">
                            <mxPoint x="674.76" y="490"/>
                            <mxPoint x="674.76" y="650"/>
                        </Array>
                    </mxGeometry>
                </mxCell>
                <mxCell id="633" value="&lt;font style=&quot;font-size: 12px&quot;&gt;if &lt;br&gt;(super.getSpeed()) &amp;lt;&lt;br&gt;&amp;nbsp;0&lt;/font&gt;" style="rhombus;whiteSpace=wrap;html=1;fontSize=22;" vertex="1" parent="1">
                    <mxGeometry x="515" y="440" width="120" height="100" as="geometry"/>
                </mxCell>
                <mxCell id="636" value="no" style="text;html=1;align=center;verticalAlign=middle;resizable=0;points=[];autosize=1;strokeColor=none;fillColor=none;fontSize=12;" vertex="1" parent="1">
                    <mxGeometry x="639.39" y="460" width="30" height="20" as="geometry"/>
                </mxCell>
                <mxCell id="637" value="yes" style="text;html=1;align=center;verticalAlign=middle;resizable=0;points=[];autosize=1;strokeColor=none;fillColor=none;fontSize=12;" vertex="1" parent="1">
                    <mxGeometry x="586" y="540" width="30" height="20" as="geometry"/>
                </mxCell>
                <mxCell id="640" style="edgeStyle=none;html=1;entryX=0.5;entryY=0;entryDx=0;entryDy=0;fontSize=12;" edge="1" parent="1" source="638" target="615">
                    <mxGeometry relative="1" as="geometry"/>
                </mxCell>
                <mxCell id="638" value="super.setSpeed(0)" style="rounded=1;whiteSpace=wrap;html=1;fontSize=12;" vertex="1" parent="1">
                    <mxGeometry x="515" y="560" width="120" height="30" as="geometry"/>
                </mxCell>
                <mxCell id="642" style="edgeStyle=none;html=1;entryX=0.5;entryY=0;entryDx=0;entryDy=0;" edge="1" parent="1" source="643" target="647">
                    <mxGeometry relative="1" as="geometry"/>
                </mxCell>
                <mxCell id="643" value="Start" style="ellipse;whiteSpace=wrap;html=1;" vertex="1" parent="1">
                    <mxGeometry x="-239.74" y="327.5" width="120" height="60" as="geometry"/>
                </mxCell>
                <mxCell id="644" value="Stop" style="ellipse;whiteSpace=wrap;html=1;" vertex="1" parent="1">
                    <mxGeometry x="-240.24" y="622.5" width="120" height="60" as="geometry"/>
                </mxCell>
                <mxCell id="645" value="accelerate()" style="text;html=1;align=center;verticalAlign=middle;resizable=0;points=[];autosize=1;strokeColor=none;fillColor=none;" vertex="1" parent="1">
                    <mxGeometry x="-219.24" y="297.5" width="80" height="20" as="geometry"/>
                </mxCell>
                <mxCell id="686" style="edgeStyle=none;rounded=0;html=1;entryX=0.5;entryY=0;entryDx=0;entryDy=0;fontSize=12;" edge="1" parent="1" source="647" target="685">
                    <mxGeometry relative="1" as="geometry"/>
                </mxCell>
                <mxCell id="647" value="this.speed&amp;nbsp; = accelerationPower * accelerationTime + this.speed" style="rounded=1;whiteSpace=wrap;html=1;" vertex="1" parent="1">
                    <mxGeometry x="-299.99" y="407.5" width="239.5" height="30" as="geometry"/>
                </mxCell>
                <mxCell id="648" value="&lt;font style=&quot;font-size: 22px&quot;&gt;&lt;b&gt;Vehicle.ts&lt;/b&gt;&lt;/font&gt;" style="text;html=1;align=center;verticalAlign=middle;resizable=0;points=[];autosize=1;strokeColor=none;fillColor=none;" vertex="1" parent="1">
                    <mxGeometry x="-399.62" y="240" width="120" height="20" as="geometry"/>
                </mxCell>
                <mxCell id="687" value="" style="edgeStyle=none;rounded=0;html=1;fontSize=12;" edge="1" parent="1" source="685" target="647">
                    <mxGeometry relative="1" as="geometry"/>
                </mxCell>
                <mxCell id="689" style="edgeStyle=none;rounded=0;html=1;entryX=0.5;entryY=0;entryDx=0;entryDy=0;fontSize=12;" edge="1" parent="1" source="685" target="688">
                    <mxGeometry relative="1" as="geometry"/>
                </mxCell>
                <mxCell id="692" style="edgeStyle=none;rounded=0;html=1;entryX=1;entryY=0.5;entryDx=0;entryDy=0;fontSize=12;" edge="1" parent="1" source="685" target="644">
                    <mxGeometry relative="1" as="geometry">
                        <Array as="points">
                            <mxPoint x="-34.620000000000005" y="497.5"/>
                            <mxPoint x="-34.620000000000005" y="652.5"/>
                        </Array>
                    </mxGeometry>
                </mxCell>
                <mxCell id="685" value="&lt;font style=&quot;font-size: 12px&quot;&gt;if (this.speed &amp;gt; this.maxSpeed)&lt;br&gt;&lt;/font&gt;" style="rhombus;whiteSpace=wrap;html=1;fontSize=22;" vertex="1" parent="1">
                    <mxGeometry x="-276.55" y="462.5" width="194.62" height="70" as="geometry"/>
                </mxCell>
                <mxCell id="691" style="edgeStyle=none;rounded=0;html=1;entryX=0.5;entryY=0;entryDx=0;entryDy=0;fontSize=12;" edge="1" parent="1" source="688" target="644">
                    <mxGeometry relative="1" as="geometry"/>
                </mxCell>
                <mxCell id="688" value="this.speed = this.maxSpeed" style="rounded=1;whiteSpace=wrap;html=1;" vertex="1" parent="1">
                    <mxGeometry x="-299.99" y="562.5" width="239.5" height="30" as="geometry"/>
                </mxCell>
                <mxCell id="693" value="yes" style="text;html=1;align=center;verticalAlign=middle;resizable=0;points=[];autosize=1;strokeColor=none;fillColor=none;fontSize=12;" vertex="1" parent="1">
                    <mxGeometry x="-154.24" y="532.5" width="30" height="20" as="geometry"/>
                </mxCell>
                <mxCell id="694" value="no" style="text;html=1;align=center;verticalAlign=middle;resizable=0;points=[];autosize=1;strokeColor=none;fillColor=none;fontSize=12;" vertex="1" parent="1">
                    <mxGeometry x="-81.93" y="472.5" width="30" height="20" as="geometry"/>
                </mxCell>
                <mxCell id="695" style="edgeStyle=none;html=1;entryX=0.5;entryY=0;entryDx=0;entryDy=0;" edge="1" parent="1" source="696" target="700">
                    <mxGeometry relative="1" as="geometry"/>
                </mxCell>
                <mxCell id="696" value="Start" style="ellipse;whiteSpace=wrap;html=1;" vertex="1" parent="1">
                    <mxGeometry x="-584.37" y="327.5" width="120" height="60" as="geometry"/>
                </mxCell>
                <mxCell id="697" value="Stop" style="ellipse;whiteSpace=wrap;html=1;" vertex="1" parent="1">
                    <mxGeometry x="-584.87" y="622.5" width="120" height="60" as="geometry"/>
                </mxCell>
                <mxCell id="698" value="brake()" style="text;html=1;align=center;verticalAlign=middle;resizable=0;points=[];autosize=1;strokeColor=none;fillColor=none;" vertex="1" parent="1">
                    <mxGeometry x="-548.87" y="297.5" width="50" height="20" as="geometry"/>
                </mxCell>
                <mxCell id="699" style="edgeStyle=none;rounded=0;html=1;entryX=0.5;entryY=0;entryDx=0;entryDy=0;fontSize=12;" edge="1" parent="1" source="700" target="704">
                    <mxGeometry relative="1" as="geometry"/>
                </mxCell>
                <mxCell id="700" value="this.speed = this.speed - breakPower * breakTime" style="rounded=1;whiteSpace=wrap;html=1;" vertex="1" parent="1">
                    <mxGeometry x="-643.62" y="402.5" width="239.5" height="30" as="geometry"/>
                </mxCell>
                <mxCell id="702" style="edgeStyle=none;rounded=0;html=1;entryX=0.5;entryY=0;entryDx=0;entryDy=0;fontSize=12;" edge="1" parent="1" source="704" target="706">
                    <mxGeometry relative="1" as="geometry"/>
                </mxCell>
                <mxCell id="703" style="edgeStyle=none;rounded=0;html=1;entryX=1;entryY=0.5;entryDx=0;entryDy=0;fontSize=12;" edge="1" parent="1" source="704" target="697">
                    <mxGeometry relative="1" as="geometry">
                        <Array as="points">
                            <mxPoint x="-379.25" y="497.5"/>
                            <mxPoint x="-379.25" y="652.5"/>
                        </Array>
                    </mxGeometry>
                </mxCell>
                <mxCell id="704" value="&lt;font style=&quot;font-size: 12px&quot;&gt;if (this.speed &amp;lt; 0 )&lt;br&gt;&lt;/font&gt;" style="rhombus;whiteSpace=wrap;html=1;fontSize=22;" vertex="1" parent="1">
                    <mxGeometry x="-578.62" y="447.5" width="109.75" height="100" as="geometry"/>
                </mxCell>
                <mxCell id="705" style="edgeStyle=none;rounded=0;html=1;entryX=0.5;entryY=0;entryDx=0;entryDy=0;fontSize=12;" edge="1" parent="1" source="706" target="697">
                    <mxGeometry relative="1" as="geometry"/>
                </mxCell>
                <mxCell id="706" value="this.speed = 0" style="rounded=1;whiteSpace=wrap;html=1;" vertex="1" parent="1">
                    <mxGeometry x="-644.62" y="562.5" width="239.5" height="30" as="geometry"/>
                </mxCell>
                <mxCell id="707" value="yes" style="text;html=1;align=center;verticalAlign=middle;resizable=0;points=[];autosize=1;strokeColor=none;fillColor=none;fontSize=12;" vertex="1" parent="1">
                    <mxGeometry x="-498.87" y="532.5" width="30" height="20" as="geometry"/>
                </mxCell>
                <mxCell id="708" value="no" style="text;html=1;align=center;verticalAlign=middle;resizable=0;points=[];autosize=1;strokeColor=none;fillColor=none;fontSize=12;" vertex="1" parent="1">
                    <mxGeometry x="-426.56000000000006" y="472.5" width="30" height="20" as="geometry"/>
                </mxCell>
            </root>
        </mxGraphModel>
    </diagram>
</mxfile>